<svg viewBox="0 0 24 24" width="36px" height="24px" xmlns="http://www.w3.org/2000/svg">
      <path
        d="M21.86 11.16 20.2 9.62l-1.66-5.53a.39.39 0 0 0-.14-.21.4.4 0 0 0-.25-.08H5.85a.4.4 0 0 0-.25.08.4.4 0 0 0-.14.2l-1.8 5.54-1.54 1.54a.38.38 0 0 0-.1.14.44.44 0 0 0-.02.16v4.94l.03.15c.02.06.05.1.09.14l.72.7v2.37c0 .11.04.22.12.3.08.08.17.13.29.13h3.34c.12 0 .21-.05.3-.13a.43.43 0 0 0 .11-.3v-2.37h10v2.37c0 .11.04.22.12.3.08.08.17.13.29.13h3.34c.12 0 .21-.05.3-.13a.43.43 0 0 0 .11-.3v-2.37l.72-.7a.38.38 0 0 0 .1-.14l.02-.15v-4.92a.39.39 0 0 0-.04-.18.52.52 0 0 0-.1-.14zM6.8 5.46h10.4l1.25 4.16H5.54l1.25-4.16zm-.9 9.16a1.6 1.6 0 0 1-1.18-.49 1.6 1.6 0 0 1-.48-1.17c0-.46.16-.85.48-1.17a1.6 1.6 0 0 1 1.18-.49c.45 0 .84.16 1.17.49.32.32.49.71.49 1.17 0 .46-.17.85-.5 1.17a1.6 1.6 0 0 1-1.16.49zm12.22 0a1.6 1.6 0 0 1-1.17-.49 1.6 1.6 0 0 1-.49-1.17c0-.46.17-.85.5-1.17a1.6 1.6 0 0 1 1.16-.49c.46 0 .85.16 1.18.49.32.32.48.71.48 1.17 0 .46-.16.85-.48 1.17a1.6 1.6 0 0 1-1.18.49z"
        fill="#343B53"
      />
</svg>