<svg viewBox="0 0 24 24" width="36px" height="24px" xmlns="http://www.w3.org/2000/svg">
      <path
        d="M20.34 10.96v1.68c0 .13-.06.24-.14.32-2.21 1.99-3.51 4.72-4.58 7.45-.24.62-.4 1.05-.48 1.3a.4.4 0 0 1-.39.29h-5.5a.4.4 0 0 1-.4-.3c-.07-.24-.23-.67-.47-1.3-1.06-2.7-2.4-5.47-4.58-7.44a.44.44 0 0 1-.14-.32v-1.68c0-.18.11-.33.3-.4l6.5-2.17c.23-.05.54.08.54.35L12 16l1-7.26c0-.28.3-.4.54-.35l6.5 2.16c.19.08.3.23.3.41zM5.83 8.2 12 6.12l6.17 2.07-1.72-3.14h1.66l-.47-1.37a.4.4 0 0 0-.39-.3h-4.14v-.97c0-.23-.2-.41-.4-.41H11.3c-.21 0-.41.18-.41.41v.98H6.75a.4.4 0 0 0-.4.29L5.9 5.05h1.66L5.83 8.19z"
        fill="#343B53"
      />
</svg>