<svg viewBox="0 0 24 24" width="36px" height="24px" xmlns="http://www.w3.org/2000/svg">
      <path
        d="M21.59 11.59h-2.36V8.66c0-.23-.2-.41-.43-.41h-5.82a.42.42 0 0 0-.43.41v2.93H10.2a.42.42 0 0 0-.43.41v8.34c0 .23.21.41.43.41h11.4c.21 0 .41-.2.41-.41V12c0-.23-.2-.41-.41-.41zm-7.36-1.68h3.32v1.68h-3.32V9.91zm3.79 9.06-1.2-1.17 2.37-2.36 1.17 1.17-2.34 2.36zM10.89 4.91V3.66a.4.4 0 0 0-.41-.41H4.64a.4.4 0 0 0-.41.41v2.93H2.4A.4.4 0 0 0 2 7v13.34c0 .2.18.41.41.41h5.7V10.34c0-.23.18-.43.41-.43h2.37v-5zM9.23 6.59H5.89V4.91h3.34v1.68z"
        fill="#343B53"
      />
</svg>