<svg viewBox="0 0 24 24" width="36px" height="24px" xmlns="http://www.w3.org/2000/svg">
      <path
        d="m21.61 21.41-.47-1.1a.49.49 0 0 0-.16-.2.4.4 0 0 0-.23-.06h-.84V7.4a.4.4 0 0 0-.12-.28.38.38 0 0 0-.29-.13h-3.75V2.41a.4.4 0 0 0-.12-.28.38.38 0 0 0-.29-.13H4.5a.38.38 0 0 0-.3.13.4.4 0 0 0-.11.28v17.64h-.84a.4.4 0 0 0-.23.07.49.49 0 0 0-.16.18l-.47 1.11a.44.44 0 0 0-.03.2c0 .08.03.14.07.2a.38.38 0 0 0 .33.2h18.48a.38.38 0 0 0 .33-.2.36.36 0 0 0 .07-.2c0-.06 0-.13-.03-.2zM9.09 17h-2.5v-2.5h2.5V17zm0-5h-2.5V9.5h2.5V12zm0-5h-2.5V4.5h2.5V7zm4.16 12.77h-2.5V14.5h2.5v5.27zm0-7.77h-2.5V9.5h2.5V12zm0-5h-2.5V4.5h2.5V7zm4.16 10h-2.5v-2.5h2.5V17zm0-5h-2.5V9.5h2.5V12z"
        fill="#343B53"
      />
</svg>
